<svg width="64" height="64" viewBox="0 0 40 40" fill="none" xmlns="http://www.w3.org/2000/svg">
  <defs>
    <linearGradient id="fgTopFace" x1="7.7" y1="5" x2="30.3" y2="31" gradientUnits="userSpaceOnUse">
      <stop offset="0%"   stop-color="#9f7aea"/>
      <stop offset="45%"  stop-color="#7c3aed"/>
      <stop offset="100%" stop-color="#a855f7"/>
    </linearGradient>
    <linearGradient id="fgRightFace" x1="30.3" y1="11.5" x2="32.8" y2="27" gradientUnits="userSpaceOnUse">
      <stop offset="0%"   stop-color="#3e2282"/>
      <stop offset="100%" stop-color="#271558"/>
    </linearGradient>
    <linearGradient id="fgLowerRight" x1="30.3" y1="24.5" x2="21.5" y2="33.5" gradientUnits="userSpaceOnUse">
      <stop offset="0%"   stop-color="#4a2a95"/>
      <stop offset="100%" stop-color="#2a185f"/>
    </linearGradient>
    <linearGradient id="fgBottomFace" x1="19" y1="31" x2="10.2" y2="27" gradientUnits="userSpaceOnUse">
      <stop offset="0%"   stop-color="#3a2275"/>
      <stop offset="100%" stop-color="#1e1245"/>
    </linearGradient>
    <linearGradient id="fgShimmer" x1="7.7" y1="5" x2="19" y2="31" gradientUnits="userSpaceOnUse">
      <stop offset="0%"   stop-color="#ffffff" stop-opacity="0.32"/>
      <stop offset="45%"  stop-color="#ffffff" stop-opacity="0.07"/>
      <stop offset="100%" stop-color="#ffffff" stop-opacity="0"/>
    </linearGradient>
    <linearGradient id="fgBText" x1="12" y1="10" x2="26" y2="27" gradientUnits="userSpaceOnUse">
      <stop offset="0%"   stop-color="#ffffff"/>
      <stop offset="60%"  stop-color="#ddd6fe"/>
      <stop offset="100%" stop-color="#a78bfa"/>
    </linearGradient>
  </defs>

  <!-- 3D extruded side faces -->
  <polygon points="30.3,11.5 32.8,14 32.8,27 30.3,24.5" fill="url(#fgRightFace)"/>
  <polygon points="30.3,24.5 32.8,27 21.5,33.5 19,31"   fill="url(#fgLowerRight)"/>
  <polygon points="19,31 21.5,33.5 10.2,27 7.7,24.5"    fill="url(#fgBottomFace)"/>

  <!-- Top (front) face -->
  <path d="M19 5L30.3 11.5V24.5L19 31L7.7 24.5V11.5Z" fill="url(#fgTopFace)"/>
  <path d="M19 5L30.3 11.5V24.5L19 31L7.7 24.5V11.5Z" stroke="#c084fc" stroke-width="1" opacity="0.75" fill="none"/>
  <path d="M19 5L30.3 11.5V24.5L19 31L7.7 24.5V11.5Z" fill="url(#fgShimmer)"/>

  <!-- "B" letter -->
  <text x="20" y="20.5" text-anchor="middle" dominant-baseline="central"
        font-family="Poppins,sans-serif" font-weight="900" font-size="17"
        fill="rgba(0,0,0,0.45)" transform="translate(0.6,0.7)">B</text>
  <text x="19.5" y="19.5" text-anchor="middle" dominant-baseline="central"
        font-family="Poppins,sans-serif" font-weight="900" font-size="17"
        fill="url(#fgBText)">B</text>
</svg>
